<svg width="2001" height="535" viewBox="0 0 2001 535" fill="none" xmlns="http://www.w3.org/2000/svg">
<path fill-rule="evenodd" clip-rule="evenodd" d="M1364.08 79.0747C1385.91 79.0747 1403.61 61.3733 1403.61 39.5374C1403.61 17.7015 1385.91 0 1364.08 0C1342.24 0 1324.54 17.7015 1324.54 39.5374C1324.54 61.3733 1342.24 79.0747 1364.08 79.0747ZM411.436 2.97142L528.485 119.716L528.513 119.742C532.331 123.552 531.397 129.946 526.669 132.504L380.825 211.63C375.215 214.694 375.215 222.739 380.825 225.776L526.669 304.903C531.397 307.461 532.331 313.854 528.513 317.664L411.436 434.409C408.819 437.02 404.704 437.553 401.553 435.607C328.817 390.637 280.389 310.311 280.389 218.69C280.389 127.069 328.817 46.7439 401.553 1.77255C404.704 -0.17231 408.819 0.360526 411.436 2.97142ZM119.444 532.416L2.36795 415.672C-1.45177 411.863 -0.516876 405.468 4.21105 402.91L150.055 323.757C155.665 320.694 155.665 312.648 150.055 309.611L4.21105 230.484C-0.516876 227.927 -1.45177 221.533 2.36795 217.723L119.417 100.979C122.035 98.3679 126.149 97.835 129.301 99.7798C202.035 144.724 250.49 225.076 250.49 316.697C250.49 408.318 202.063 488.644 129.327 533.616C126.175 535.56 122.062 535.027 119.444 532.416ZM1398.93 442.206H1329.01V112.999H1398.93V442.206ZM740.35 442.206V112.999H811.835C811.979 120.753 811.925 130.178 811.877 138.541V138.548C811.856 142.356 811.835 145.945 811.835 149.055V162.897L811.94 174.787C823.831 156.951 832.319 145.188 853.221 129.929C874.123 114.671 900.042 107.042 930.977 107.042C961.076 107.042 983.964 113.73 999.64 127.108C1015.53 140.276 1023.47 159.297 1023.47 184.17C1023.47 190.65 1023.05 196.711 1022.21 202.355L1028.48 203.923C1041.03 170.897 1058.27 146.547 1080.22 130.87C1102.16 114.984 1129.34 107.042 1161.74 107.042C1196.22 107.042 1222.25 115.298 1239.8 131.811C1257.57 148.323 1266.45 172.779 1266.45 205.177V442.206H1196.22V219.599C1196.22 199.533 1190.68 184.275 1179.61 173.824C1168.53 163.164 1152.33 157.834 1131.01 157.834C1111.57 157.834 1094.85 163.164 1080.84 173.824C1067.05 184.275 1056.49 199.115 1049.18 218.345C1042.07 237.366 1038.52 259.627 1038.52 285.127V442.206H968.287V220.54C968.287 200.265 962.748 184.693 951.67 173.824C940.592 162.955 924.602 157.52 903.7 157.52C884.47 157.52 867.853 162.955 853.848 173.824C839.844 184.484 829.079 199.847 821.555 219.913C814.03 239.979 810.268 263.493 810.268 290.457V442.206H740.35ZM1463.68 112.999V442.206H1533.6V288.889C1533.6 261.926 1537.88 238.515 1546.45 218.659C1555.23 198.593 1567.67 183.125 1583.76 172.256C1599.85 161.387 1618.77 155.952 1640.51 155.952C1664.96 155.952 1683.36 162.223 1695.69 174.764C1708.23 187.096 1714.5 205.281 1714.5 229.319V442.206H1784.73V213.956C1784.73 179.258 1774.7 152.817 1754.63 134.632C1734.78 116.239 1705.83 107.042 1667.79 107.042C1632.88 107.042 1603.62 114.984 1580 130.87C1556.59 146.756 1543.23 156.951 1535.16 173.401V152.19V112.999H1463.68ZM1941.35 442.206H1871.12V353.79V160.655H1812.49V112.999H1871.12V36.4973L1941.35 16.7449V112.999H2000.01V160.655H1941.35V343.444V384.516V397.371V412.606V430.443V442.206Z" fill="black"/>
</svg>
